<svg xmlns="http://www.w3.org/2000/svg" viewBox="0 0 256.71 256.71"><defs><style>.cls-1{fill:#3062ef;}</style></defs><g id="Layer_2" data-name="Layer 2"><g id="Layer_1-2" data-name="Layer 1"><path class="cls-1" d="M255.94,75.44c-.62-13.67-2.79-23-6-31.16a62.91,62.91,0,0,0-14.8-22.74,62.83,62.83,0,0,0-22.74-14.8c-8.16-3.18-17.49-5.34-31.15-6S163.21,0,128.36,0,89.12.15,75.44.77s-23,2.8-31.16,6a62.91,62.91,0,0,0-22.74,14.8A62.83,62.83,0,0,0,6.74,44.28C3.56,52.44,1.4,61.77.78,75.43S0,93.5,0,128.36s.15,39.23.78,52.92,2.79,23,6,31.16a62.9,62.9,0,0,0,14.81,22.73A62.87,62.87,0,0,0,44.28,250c8.16,3.18,17.5,5.35,31.16,6s18.06.77,52.92.77,39.23-.14,52.92-.77,23-2.79,31.16-6A65.56,65.56,0,0,0,250,212.44c3.18-8.17,5.35-17.5,6-31.16s.77-18.06.77-52.92S256.56,89.13,255.94,75.44Zm-23.1,104.34c-.57,12.37-2.67,19.08-4.42,23.55a42.26,42.26,0,0,1-24.36,24.07c-4.53,1.74-11.32,3.81-23.84,4.37-13.53.61-17.59.74-51.86.74s-38.34-.13-51.87-.74c-12.52-.56-19.31-2.63-23.84-4.37a39.7,39.7,0,0,1-14.75-9.49,39.19,39.19,0,0,1-9.61-14.58c-1.75-4.47-3.85-11.18-4.42-23.55-.61-13.37-.74-17.39-.74-51.26s.13-37.88.74-51.25c.58-12.37,2.67-19.08,4.42-23.55A39.23,39.23,0,0,1,37.9,39.13a39.9,39.9,0,0,1,14.76-9.49c4.52-1.73,11.31-3.8,23.83-4.36,13.53-.61,17.59-.74,51.87-.74h0c34.28,0,38.34.13,51.87.74,12.52.56,19.31,2.63,23.84,4.36a40,40,0,0,1,14.75,9.49,39.23,39.23,0,0,1,9.61,14.59c1.75,4.47,3.85,11.18,4.42,23.55.61,13.37.74,17.39.74,51.25S233.45,166.4,232.84,179.78Z"/><path class="cls-1" d="M77.53,161.3H70.69a18.43,18.43,0,0,0-18.41,18.41v6.84A18.43,18.43,0,0,0,70.69,205h6.84a18.42,18.42,0,0,0,18.4-18.41v-6.84a18.42,18.42,0,0,0-18.4-18.41m8.8,25.25a8.81,8.81,0,0,1-8.8,8.8H70.69a8.81,8.81,0,0,1-8.8-8.8v-6.84a8.81,8.81,0,0,1,8.8-8.8h6.84a8.81,8.81,0,0,1,8.8,8.8Z"/><path class="cls-1" d="M124.83,205h6.84a18.43,18.43,0,0,0,18.41-18.41v-6.84a18.43,18.43,0,0,0-18.41-18.41h-6.84a18.43,18.43,0,0,0-18.41,18.41v6.84A18.43,18.43,0,0,0,124.83,205M116,179.71a8.81,8.81,0,0,1,8.8-8.8h6.84a8.81,8.81,0,0,1,8.8,8.8v6.84a8.81,8.81,0,0,1-8.8,8.8h-6.84a8.81,8.81,0,0,1-8.8-8.8Z"/><path class="cls-1" d="M70.69,152.05h6.84a18.42,18.42,0,0,0,18.4-18.4V126.8a18.42,18.42,0,0,0-18.4-18.4H70.69a18.43,18.43,0,0,0-18.41,18.4v6.85a18.42,18.42,0,0,0,18.41,18.4m-8.8-25.25a8.8,8.8,0,0,1,8.8-8.79h6.84a8.8,8.8,0,0,1,8.8,8.79v6.85a8.8,8.8,0,0,1-8.8,8.79H70.69a8.8,8.8,0,0,1-8.8-8.79Z"/><path class="cls-1" d="M204.22,126.8a18.43,18.43,0,0,0-18.4-18.4H179a18.42,18.42,0,0,0-18.4,18.4v6.85a18.42,18.42,0,0,0,18.4,18.4h6.85a18.42,18.42,0,0,0,18.4-18.4Zm-9.61,6.85a8.8,8.8,0,0,1-8.79,8.79H179a8.8,8.8,0,0,1-8.79-8.79V126.8A8.8,8.8,0,0,1,179,118h6.85a8.8,8.8,0,0,1,8.79,8.79Z"/><path class="cls-1" d="M150.08,126.8a18.43,18.43,0,0,0-18.41-18.4h-6.84a18.43,18.43,0,0,0-18.41,18.4v6.85a18.42,18.42,0,0,0,18.41,18.4h6.84a18.42,18.42,0,0,0,18.41-18.4Zm-9.61,6.85a8.8,8.8,0,0,1-8.8,8.79h-6.84a8.8,8.8,0,0,1-8.8-8.79V126.8a8.8,8.8,0,0,1,8.8-8.79h6.84a8.8,8.8,0,0,1,8.8,8.79Z"/><path class="cls-1" d="M204.22,179.71a18.43,18.43,0,0,0-18.4-18.41H179a18.42,18.42,0,0,0-18.4,18.41v6.84A18.42,18.42,0,0,0,179,205h6.85a18.43,18.43,0,0,0,18.4-18.41Zm-9.61,6.84a8.81,8.81,0,0,1-8.79,8.8H179a8.8,8.8,0,0,1-8.79-8.8v-6.84a8.8,8.8,0,0,1,8.79-8.8h6.85a8.81,8.81,0,0,1,8.79,8.8Z"/><circle class="cls-1" cx="86.33" cy="67.59" r="12.63"/><circle class="cls-1" cx="170.18" cy="67.59" r="12.63"/></g></g></svg>